<?xml version="1.0" encoding="utf-8"?>
<!-- Generator: Adobe Illustrator 16.0.0, SVG Export Plug-In . SVG Version: 6.00 Build 0)  -->
<!DOCTYPE svg PUBLIC "-//W3C//DTD SVG 1.1//EN" "http://www.w3.org/Graphics/SVG/1.1/DTD/svg11.dtd">
<svg version="1.1" id="Layer_1" xmlns="http://www.w3.org/2000/svg" xmlns:xlink="http://www.w3.org/1999/xlink" x="0px" y="0px"
	 width="80px" height="80px" viewBox="0 0 80 80" enable-background="new 0 0 80 80" xml:space="preserve">
<path d="M17.049,6.785C17.049,3.038,20.065,0,23.783,0c3.721,0,6.738,3.038,6.738,6.785c0,3.749-3.018,6.79-6.738,6.79
	C20.064,13.575,17.049,10.534,17.049,6.785z"/>
<polygon points="42.982,77.997 44.043,49.04 25.324,44.094 27.09,31.028 31.682,36.677 50.048,36.677 50.048,32.792 36.626,30.674 
	27.443,16.901 15.79,16.547 12.258,52.215 35.214,56.809 36.626,77.997 "/>
<polygon points="9.447,78.107 9.436,75.614 32.015,75.518 31.197,60.33 7.4,56.068 9.602,25.992 12.089,26.173 10.051,54.011 
	33.579,58.225 34.645,77.999 "/>
<path d="M75.27,48.581V37.259h-5.033v-1.991h-5.521l-0.009-15.515c0-0.718-0.583-1.3-1.3-1.3h-0.574
	c-0.135,0-0.266,0.027-0.391,0.065l1.748-8.561l-3.916-3.386L54.919,32.82l4.748-0.695l1.802-8.824l-0.001,11.968l-5.521-0.001
	v1.992H41.852v2.493h30.924v6.335H61.122v32.157h9.649V75.75h-7.155V48.581H75.27z"/>
</svg>
