<?xml version="1.0" encoding="utf-8"?>
<!-- Generator: Adobe Illustrator 16.0.0, SVG Export Plug-In . SVG Version: 6.00 Build 0)  -->
<!DOCTYPE svg PUBLIC "-//W3C//DTD SVG 1.1//EN" "http://www.w3.org/Graphics/SVG/1.1/DTD/svg11.dtd">
<svg version="1.1"
	 id="Layer_1" xmlns:dc="http://purl.org/dc/elements/1.1/" xmlns:cc="http://creativecommons.org/ns#" xmlns:rdf="http://www.w3.org/1999/02/22-rdf-syntax-ns#" xmlns:svg="http://www.w3.org/2000/svg" xmlns:sodipodi="http://sodipodi.sourceforge.net/DTD/sodipodi-0.dtd" xmlns:inkscape="http://www.inkscape.org/namespaces/inkscape"
	 xmlns="http://www.w3.org/2000/svg" xmlns:xlink="http://www.w3.org/1999/xlink" x="0px" y="0px" width="80px" height="80px"
	 viewBox="0 0 80 80" enable-background="new 0 0 80 80" xml:space="preserve">
<g transform="translate(0,-952.36218)">
	<path d="M23.004,954.152c-10.167,6.319-16.921,17.621-16.921,30.458c0,19.187,15.141,34.868,34.108,35.761v2.611h-8.527
		c-0.873,0.01-1.387,0.686-1.651,1.226l-1.706,5.969c-0.298,1.018,0.592,2.195,1.652,2.186h23.875
		c1.062,0.01,1.952-1.168,1.652-2.186l-1.704-5.969c-0.208-0.706-0.916-1.231-1.652-1.226h-8.527v-2.611
		c4.469-0.216,8.738-1.257,12.631-2.959c0.815-0.361,1.229-1.435,0.866-2.251c-0.364-0.816-1.437-1.228-2.253-0.866
		c-3.972,1.737-8.336,2.718-12.949,2.718c-17.917,0-32.404-14.486-32.404-32.403c0-11.641,6.125-21.837,15.322-27.554
		c0.655-0.363,1.012-1.193,0.825-1.919C24.996,953.886,24.003,953.645,23.004,954.152z M41.898,955.618
		c-15.993,0-28.994,13-28.994,28.992s13.001,28.993,28.994,28.993c15.991,0,28.992-13.001,28.992-28.993
		c0-11.849-7.146-22.047-17.349-26.541c-0.012-0.005-0.014-0.022-0.025-0.027h-0.027C49.937,956.486,46.021,955.618,41.898,955.618z
		 M41.898,959.028c3.305,0,6.454,0.622,9.353,1.759c1.804,3.096,1.684,6.256,1.731,8.5c0.053,2.38-0.98,3.765-2.291,5.889
		c-0.708,1.148-1.936,2.221-3.171,3.304c-1.235,1.084-2.653,2.153-3.038,4.077c-0.447,2.234-0.768,4.71-1.439,6.422
		c-0.336,0.856-0.746,1.493-1.172,1.866c-0.426,0.373-0.855,0.587-1.68,0.586c-0.614,0-0.947-0.172-1.385-0.56
		c-0.438-0.388-0.917-1.046-1.359-1.918c-1.078-2.126-1.239-3.895-1.252-5.836c-0.012-1.942,0.188-4.074-0.293-6.528
		c-0.519-2.646-2.124-4.322-3.277-5.623c-1.154-1.301-1.812-2.085-1.812-3.411c0-3.533,0.857-5.625,2.691-7.115
		C36.134,959.529,38.953,959.028,41.898,959.028z M55.808,963.132c7.029,4.555,11.671,12.463,11.671,21.478
		c0,3.486-0.687,6.806-1.944,9.833c-2.107-0.959-4.73-1.148-7.354-1.306c-0.036-0.001-0.071-0.001-0.106,0
		c-4.314,0-7.538,1.426-8.82,4.077c-1.274,2.633-0.164,5.818,2.477,8.207c0.021,0.021,0.034,0.034,0.055,0.054
		c0.758,0.748,1.458,1.306,2.105,1.731c-3.575,1.897-7.655,2.985-11.991,2.985c-14.149,0-25.582-11.434-25.582-25.583
		c0-8.988,4.625-16.863,11.618-21.424c-0.362,1.335-0.533,2.802-0.533,4.37c0,2.573,1.471,4.331,2.665,5.676
		c1.194,1.346,2.159,2.394,2.478,4.024c0.37,1.883,0.226,3.726,0.24,5.889c0.014,2.163,0.255,4.655,1.625,7.354
		c0.546,1.077,1.195,2.102,2.131,2.931c0.937,0.83,2.225,1.41,3.651,1.412c1.542,0,2.94-0.561,3.944-1.438
		c1.003-0.879,1.619-2.001,2.079-3.171c0.916-2.341,1.218-4.979,1.625-7.009c0.056-0.281,0.731-1.142,1.919-2.185
		c1.187-1.042,2.707-2.29,3.81-4.077c1.221-1.977,2.902-4.289,2.825-7.754C56.364,967.888,56.427,965.645,55.808,963.132
		L55.808,963.132z M58.073,996.548c2.333,0.148,4.596,0.549,5.889,1.013c-1.724,2.936-4.004,5.508-6.715,7.54v-0.025
		c0,0-0.019,0.02-0.56-0.214c-0.542-0.231-1.423-0.732-2.559-1.864c-0.018-0.019-0.035-0.036-0.055-0.053
		c-1.982-1.769-2.214-3.24-1.73-4.237c0.481-0.997,2.167-2.158,5.728-2.158L58.073,996.548z M32.971,1026.392h17.854l0.747,2.559
		H32.224L32.971,1026.392z"/>
</g>
</svg>
